<svg xmlns="http://www.w3.org/2000/svg" width="50" height="50"><defs><clipPath id="a"><path fill="none" d="M0 0h50v50H0z"/></clipPath><clipPath id="b"><path data-name="Прямоугольник 137" transform="translate(410 436)" fill="#df9906" stroke="#707070" d="M0 0h50v50H0z"/></clipPath></defs><g data-name="Повторяющаяся сетка 8" clip-path="url(#a)"><g data-name="Группа масок 21" clip-path="url(#b)" transform="translate(-410 -436)"><g fill="#df9906"><path data-name="Контур 2107" d="M417.846 453.934c0-8.379 6.059-14.528 14.035-15.758a19.492 19.492 0 00-2.924-.226c-9.371.023-16.957 6.607-16.957 15.984 0 11.647 11.986 20.273 11.986 20.273h8.382s-14.522-8.626-14.522-20.273z" opacity=".2"/><path data-name="Контур 2108" d="M432.856 485.9h-7.895a1.949 1.949 0 01-1.855-1.351l-.975-3.021a1.95 1.95 0 013.71-1.2l.539 1.672h5.056l.539-1.671a1.95 1.95 0 013.71 1.2l-.975 3.021a1.95 1.95 0 01-1.854 1.35zm2.924-11.7a1.949 1.949 0 00-1.949-1.949h-9.182c-2.137-1.7-10.7-9.1-10.7-18.324-.002-7.979 6.451-14.006 15.008-14.027 8.561.023 15.01 6.049 15.01 14.035a16.182 16.182 0 01-.75 4.784 1.95 1.95 0 003.724 1.154 20.073 20.073 0 00.924-5.937 17.342 17.342 0 00-5.613-12.954A19.592 19.592 0 00429.048 436h-.181a19.592 19.592 0 00-13.2 4.982 17.342 17.342 0 00-5.618 12.952c0 5.222 2.228 10.668 6.443 15.749a38.119 38.119 0 006.356 6.106 1.949 1.949 0 001.138.367h9.844a1.949 1.949 0 001.949-1.949zm-.88-22.22a11.038 11.038 0 00-6.134-2.042 11.409 11.409 0 00-6.134 2.042 1.95 1.95 0 102.326 3.129 7.769 7.769 0 011.858-.924v10.373a1.95 1.95 0 103.9 0v-10.374a7.771 7.771 0 011.858.924 1.949 1.949 0 002.326-3.128z"/><path data-name="Контур 2109" d="M459 477.6l-1.3-.779a8.273 8.273 0 000-5.04L459 471a1.949 1.949 0 10-2-3.338l-1.323.794a8.281 8.281 0 00-3.912-2.2v-1.7a1.95 1.95 0 10-3.9 0v1.7a8.284 8.284 0 00-3.983 2.276l-1.446-.868A1.949 1.949 0 10440.43 471l1.462.877a8.282 8.282 0 000 4.844l-1.462.879a1.95 1.95 0 102.006 3.343l1.447-.868a8.283 8.283 0 003.983 2.276v1.7a1.95 1.95 0 003.9 0v-1.7a8.284 8.284 0 003.912-2.2l1.322.795a1.95 1.95 0 002-3.346zm-9.19 1.087a4.386 4.386 0 114.39-4.387 4.391 4.391 0 01-4.385 4.39z"/></g></g></g></svg>