<svg xmlns="http://www.w3.org/2000/svg" width="23" height="23"><g data-name="Группа масок 30" transform="translate(0 -.004)" clip-path="url(#clip-path)"><g data-name="261-china"><path data-name="Прямоугольник 132" fill="#d80027" d="M-4 .005h33v23H-4z"/><g data-name="Сгруппировать 86" fill="#ffda44"><path data-name="Контур 211" d="M7.079 7.028l.988 3.039h3.2l-2.586 1.878.988 3.04-2.586-1.879-2.59 1.879.988-3.04-2.585-1.878h3.2z"/><path data-name="Контур 212" d="M13.304 17.137l-.97-.7-.969.7.37-1.14-.97-.7h1.2l.37-1.14.37 1.14h1.2l-.97.7z"/><path data-name="Контур 213" d="M15.834 13.655h-1.2l-.37 1.14-.37-1.14h-1.2l.97-.7-.37-1.14.97.7.97-.7-.37 1.14z"/><path data-name="Контур 214" d="M15.834 9.352l-.969.7.37 1.14-.969-.7-.97.7.37-1.14-.97-.7h1.2l.37-1.14.37 1.14z"/><path data-name="Контур 215" d="M13.304 5.871l-.37 1.14.969.7h-1.2l-.37 1.14-.37-1.14h-1.2l.97-.7-.37-1.14.969.7z"/></g></g></g></svg>