<svg xmlns="http://www.w3.org/2000/svg" width="23" height="23"><g data-name="Группа масок 6" transform="translate(0 -.004)" clip-path="url(#clip-path)"><g data-name="063-iran"><path data-name="Прямоугольник 78" fill="#f0f0f0" d="M-6.581.004H29.14v23.813H-6.581z"/><path data-name="Прямоугольник 79" fill="#6da544" d="M-6.581.004H29.14v7.938H-6.581z"/><g data-name="Сгруппировать 79" fill="#d80027"><path data-name="Прямоугольник 80" d="M-6.581 15.88H29.14v7.938H-6.581z"/><path data-name="Контур 187" d="M14.373 9.426h-1.246c.01.137.016.275.016.414a4.712 4.712 0 01-.632 2.45 2.252 2.252 0 01-.611.66V9.426h-1.242v3.524a2.255 2.255 0 01-.611-.66 4.713 4.713 0 01-.632-2.45c0-.139.006-.277.016-.414H8.185q-.012.2-.012.414c0 2.555 1.364 4.556 3.106 4.556s3.106-2 3.106-4.556q0-.21-.012-.414z"/></g><g data-name="Сгруппировать 80" fill="#f0f0f0"><path data-name="Прямоугольник 81" d="M-3.475 6.907h1.553v1.704h-1.553z"/><path data-name="Прямоугольник 82" d="M-6.581 6.907h1.553v1.704h-1.553z"/><path data-name="Прямоугольник 83" d="M-.369 6.907h1.553v1.704H-.369z"/><path data-name="Прямоугольник 84" d="M2.737 6.907H4.29v1.704H2.737z"/><path data-name="Прямоугольник 85" d="M5.844 6.907h1.553v1.704H5.844z"/><path data-name="Прямоугольник 86" d="M8.95 6.907h1.553v1.704H8.95z"/><path data-name="Прямоугольник 87" d="M12.056 6.907h1.553v1.704h-1.553z"/><path data-name="Прямоугольник 88" d="M15.162 6.907h1.553v1.704h-1.553z"/><path data-name="Прямоугольник 89" d="M18.268 6.907h1.553v1.704h-1.553z"/><path data-name="Прямоугольник 90" d="M21.374 6.907h1.553v1.704h-1.553z"/><path data-name="Прямоугольник 91" d="M24.48 6.907h1.553v1.704H24.48z"/><path data-name="Прямоугольник 92" d="M27.587 6.907h1.553v1.704h-1.553z"/><path data-name="Прямоугольник 93" d="M-3.475 15.134h1.553v1.781h-1.553z"/><path data-name="Прямоугольник 94" d="M-6.581 15.134h1.553v1.781h-1.553z"/><path data-name="Прямоугольник 95" d="M-.369 15.134h1.553v1.781H-.369z"/><path data-name="Прямоугольник 96" d="M2.737 15.134H4.29v1.781H2.737z"/><path data-name="Прямоугольник 97" d="M5.844 15.134h1.553v1.781H5.844z"/><path data-name="Прямоугольник 98" d="M8.95 15.134h1.553v1.781H8.95z"/><path data-name="Прямоугольник 99" d="M12.056 15.134h1.553v1.781h-1.553z"/><path data-name="Прямоугольник 100" d="M15.162 15.134h1.553v1.781h-1.553z"/><path data-name="Прямоугольник 101" d="M18.268 15.134h1.553v1.781h-1.553z"/><path data-name="Прямоугольник 102" d="M21.374 15.134h1.553v1.781h-1.553z"/><path data-name="Прямоугольник 103" d="M24.48 15.134h1.553v1.781H24.48z"/><path data-name="Прямоугольник 104" d="M27.587 15.134h1.553v1.781h-1.553z"/></g></g></g></svg>