<svg xmlns="http://www.w3.org/2000/svg" width="58.381" height="58.381"><g fill="#76ba80"><path data-name="Контур 1563" d="M9.123 29.19A26.915 26.915 0 0132.612 2.496a26.911 26.911 0 10-3.421 53.6 27.157 27.157 0 003.421-.216A26.915 26.915 0 019.123 29.19z" opacity=".2"/><path data-name="Контур 1564" d="M29.19 58.381A29.191 29.191 0 018.55 8.55a29.191 29.191 0 0141.281 41.281 29 29 0 01-20.641 8.55zm0-53.82A24.629 24.629 0 1053.82 29.19 24.657 24.657 0 0029.19 4.561z"/><path data-name="Контур 1565" d="M27.494 37.742a7.024 7.024 0 01-5.022-2.1l-4.365-4.4a2.28 2.28 0 113.239-3.211l4.365 4.4a2.5 2.5 0 003.566 0l9.014-9.071a2.28 2.28 0 013.235 3.215l-9.012 9.069a7.023 7.023 0 01-5.02 2.098z"/></g></svg>