<svg xmlns="http://www.w3.org/2000/svg" width="23" height="23"><g data-name="Группа масок 29" transform="translate(0 -.004)" clip-path="url(#clip-path)"><g data-name="076-philippines"><g data-name="Сгруппировать 84"><path data-name="Прямоугольник 131" fill="#f0f0f0" d="M-2 .004h36v23H-2z"/></g><path data-name="Контур 205" d="M33.022.004v11.5h-17.25L-1.478.004z" fill="#0052b4"/><path data-name="Контур 206" d="M33.022 11.504v11.5h-34.5l17.25-11.5z" fill="#d80027"/><g data-name="Сгруппировать 85" fill="#ffda44"><path data-name="Контур 207" d="M9.432 11.504l-1.839-.865.979-1.781-2 .382-.253-2.017-1.387 1.483-1.391-1.483-.253 2.017-2-.382.979 1.781-1.839.865 1.839.865-.975 1.78 2-.382.253 2.017 1.387-1.487 1.391 1.483.253-2.017 2 .382-.979-1.781z"/><path data-name="Контур 208" d="M-.009 2.178l.612.856 1-.318-.625.846.612.855-1-.332-.625.846.008-1.052-1-.332 1-.318z"/><path data-name="Контур 209" d="M-.009 18.076l.612.856 1-.318-.625.846.612.855-1-.332-.625.846.008-1.052-1-.332 1-.318z"/><path data-name="Контур 210" d="M12.699 10.127l-.612.855-1-.318.625.846-.612.856 1-.332.625.846-.008-1.052 1-.332-1-.318z"/></g></g></g></svg>