<svg xmlns="http://www.w3.org/2000/svg" width="50" height="50"><defs><clipPath id="a"><path data-name="Прямоугольник 137" transform="translate(410 436)" fill="#df9906" stroke="#707070" d="M0 0h50v50H0z"/></clipPath></defs><g data-name="Группа масок 20" transform="translate(-410 -436)" clip-path="url(#a)"><g fill="#df9906"><path data-name="Контур 2105" d="M435.293 447.719a5.859 5.859 0 115.859-5.859 5.866 5.866 0 01-5.859 5.859zm0-7.812a1.953 1.953 0 101.953 1.953 1.955 1.955 0 00-1.953-1.954zm8.691 17.969a8.074 8.074 0 00-8.12-8.008h-1.142a8.074 8.074 0 00-8.12 8.008 1.953 1.953 0 003.906 0 4.164 4.164 0 014.214-4.1h1.142a4.164 4.164 0 014.214 4.1 1.953 1.953 0 003.906 0zm-25.293 16.015a5.859 5.859 0 115.859-5.859 5.866 5.866 0 01-5.859 5.859zm0-7.812a1.953 1.953 0 101.953 1.953 1.955 1.955 0 00-1.953-1.954zm8.691 17.969a8.074 8.074 0 00-8.12-8.008h-1.142a8.074 8.074 0 00-8.12 8.007 1.953 1.953 0 003.906 0 4.164 4.164 0 014.214-4.1h1.142a4.164 4.164 0 014.214 4.1 1.953 1.953 0 003.906 0zm23.927-10.157a5.859 5.859 0 115.859-5.859 5.866 5.866 0 01-5.859 5.859zm0-7.812a1.953 1.953 0 101.953 1.953 1.955 1.955 0 00-1.953-1.954zM460 484.047a8.074 8.074 0 00-8.12-8.008h-1.142a8.074 8.074 0 00-8.12 8.008 1.953 1.953 0 003.906 0 4.164 4.164 0 014.214-4.1h1.142a4.164 4.164 0 014.214 4.1 1.953 1.953 0 003.906 0z"/><path data-name="Контур 2106" d="M452.949 458.852a1.954 1.954 0 01-1.9-1.5 16.269 16.269 0 00-6.35-9.41 1.953 1.953 0 012.279-3.172 20.176 20.176 0 017.872 11.672 1.955 1.955 0 01-1.9 2.41zm-33.513-1.5a16.278 16.278 0 016.264-9.344 1.954 1.954 0 10-2.3-3.16 20.188 20.188 0 00-7.762 11.594 1.954 1.954 0 103.8.913zm21.809 21.037a1.953 1.953 0 00-1.161-3.73 16.137 16.137 0 01-4.839.794 16.326 16.326 0 01-5.1-.878 1.953 1.953 0 00-1.225 3.709 20.217 20.217 0 006.325 1.075 19.972 19.972 0 006-.97z"/></g></g></svg>