<svg xmlns="http://www.w3.org/2000/svg" width="11.71" height="16.777"><path data-name="Контур 3048" d="M8.583 8.276a4.588 4.588 0 10-5.456 0A5.86 5.86 0 000 13.455v.422a2.9 2.9 0 002.9 2.9h5.911a2.9 2.9 0 002.9-2.9v-.422a5.86 5.86 0 00-3.128-5.179zM2.844 4.589a3.012 3.012 0 113.012 3.012 3.015 3.015 0 01-3.013-3.013zm4.893 5.026l-1.882 1.882-1.882-1.882a4.269 4.269 0 013.763 0zm-6.16 4.263v-.422a4.262 4.262 0 011.122-2.885l2.367 2.367V15.2H2.901a1.324 1.324 0 01-1.324-1.323zm8.557 0A1.324 1.324 0 018.811 15.2H6.644v-2.263l2.367-2.367a4.262 4.262 0 011.122 2.885v.422z" fill="#F7C765"/></svg>