<svg xmlns="http://www.w3.org/2000/svg" width="23" height="23"><g data-name="Группа масок 25" transform="translate(0 -.004)" clip-path="url(#clip-path)"><g data-name="153-united-states-of-america"><path data-name="Прямоугольник 111" fill="#f0f0f0" d="M-3 .004h34v23H-3z"/><g data-name="Сгруппировать 81" fill="#d80027"><path data-name="Прямоугольник 112" d="M-3 2.837h33.999V5.67H-3z"/><path data-name="Прямоугольник 113" d="M-3 8.504h33.999v2.833H-3z"/><path data-name="Прямоугольник 114" d="M-3 14.17h33.999v2.833H-3z"/><path data-name="Прямоугольник 115" d="M-3 19.837h33.999v2.833H-3z"/></g><path data-name="Прямоугольник 116" fill="#2e52b2" d="M-3 .004h17v12.205H-3z"/><g data-name="Сгруппировать 82" fill="#f0f0f0"><path data-name="Контур 192" d="M3.63 5.004l-.274.842h-.89l.717.52-.274.842.717-.52.716.52-.274-.842.717-.52h-.882z"/><path data-name="Контур 193" d="M3.903 8.886l-.273-.842-.274.842h-.89l.717.52-.274.842.717-.52.716.52-.274-.842.717-.52z"/><path data-name="Контур 194" d="M.16 8.886l-.273-.842-.274.842h-.886l.717.52-.274.842.717-.52.716.52-.274-.842.716-.52z"/><path data-name="Контур 195" d="M-.114 5.004l-.274.842h-.885l.717.52-.274.842.717-.52.716.52-.274-.842.716-.52H.16z"/><path data-name="Контур 196" d="M3.63 1.964l-.274.842h-.89l.717.52-.274.842.717-.52.716.52-.274-.842.717-.52h-.882z"/><path data-name="Контур 197" d="M-.114 1.964l-.274.842h-.885l.717.52-.274.842.717-.52.716.52-.274-.842.716-.52H.16z"/><path data-name="Контур 198" d="M7.372 5.004l-.274.842h-.885l.717.52-.274.842.716-.52.716.52-.274-.842.717-.52h-.886z"/><path data-name="Контур 199" d="M7.645 8.886l-.273-.842-.274.842h-.885l.717.52-.274.842.716-.52.716.52-.274-.842.717-.52z"/><path data-name="Контур 200" d="M11.386 8.886l-.273-.842-.274.842h-.886l.716.52-.274.842.717-.52.716.52-.274-.842.717-.52z"/><path data-name="Контур 201" d="M11.114 5.004l-.274.842h-.886l.716.52-.274.842.717-.52.716.52-.274-.842.717-.52h-.886z"/><path data-name="Контур 202" d="M7.372 1.964l-.274.842h-.885l.717.52-.274.842.716-.52.716.52-.274-.842.717-.52h-.886z"/><path data-name="Контур 203" d="M11.114 1.964l-.274.842h-.886l.716.52-.274.842.717-.52.716.52-.274-.842.717-.52h-.886z"/></g></g></g></svg>