<?xml version="1.0" encoding="UTF-8"?>
<!DOCTYPE svg PUBLIC "-//W3C//DTD SVG 1.1//EN" "http://www.w3.org/Graphics/SVG/1.1/DTD/svg11.dtd">
<svg xmlns="http://www.w3.org/2000/svg" version="1.1" width="225px" height="102px" style="shape-rendering:geometricPrecision; text-rendering:geometricPrecision; image-rendering:optimizeQuality; fill-rule:evenodd; clip-rule:evenodd" xmlns:xlink="http://www.w3.org/1999/xlink">
<g><path style="opacity:0.755" fill="#443210" d="M 58.5,5.5 C 64.802,6.57594 70.802,8.57594 76.5,11.5C 78.0481,11.8212 78.7148,12.8212 78.5,14.5C 76.9505,13.5592 75.2838,12.8925 73.5,12.5C 64.9544,7.82105 55.9544,6.48772 46.5,8.5C 34.7894,10.5617 25.7894,16.5617 19.5,26.5C 19.5,27.1667 19.5,27.8333 19.5,28.5C 18.7455,30.4663 17.5788,30.7996 16,29.5C 15.3918,31.0664 14.5585,32.3998 13.5,33.5C 13.1667,33.5 12.8333,33.5 12.5,33.5C 13.1667,31.5 13.8333,29.5 14.5,27.5C 15.9744,26.5637 16.9744,25.2303 17.5,23.5C 28.0399,10.7371 41.7066,4.73707 58.5,5.5 Z"/></g>
<g><path style="opacity:1" fill="#d6b96c" d="M 60.5,4.5 C 59.5084,4.32842 58.8417,4.66175 58.5,5.5C 41.7066,4.73707 28.0399,10.7371 17.5,23.5C 17.5983,20.7524 16.5983,20.0857 14.5,21.5C 17.4642,16.8686 21.1308,12.8686 25.5,9.5C 31.0637,5.40705 37.397,3.24038 44.5,3C 50.0772,2.25832 55.4105,2.75832 60.5,4.5 Z"/></g>
<g><path style="opacity:0.53" fill="#38290c" d="M 44.5,10.5 C 51.6656,10.0501 58.6656,10.7168 65.5,12.5C 67.6572,14.4121 69.9906,16.0787 72.5,17.5C 71.8333,17.5 71.1667,17.5 70.5,17.5C 66.3957,16.0345 62.229,14.7011 58,13.5C 57.5,13.6667 57,13.8333 56.5,14C 58.5844,14.6972 60.2511,15.8639 61.5,17.5C 61.5,17.8333 61.5,18.1667 61.5,18.5C 59.1169,16.6418 56.4502,15.3084 53.5,14.5C 53.5,14.1667 53.5,13.8333 53.5,13.5C 52.8333,13.5 52.1667,13.5 51.5,13.5C 43.2665,12.8449 35.5999,15.0116 28.5,20C 25.6306,23.0379 22.6306,25.8712 19.5,28.5C 19.5,27.8333 19.5,27.1667 19.5,26.5C 26.3169,18.6618 34.6503,13.3285 44.5,10.5 Z"/></g>
<g><path style="opacity:1" fill="#98844b" d="M 25.5,9.5 C 21.1308,12.8686 17.4642,16.8686 14.5,21.5C 11.8906,25.0668 9.55725,28.7335 7.5,32.5C 8.16667,30.1667 8.83333,27.8333 9.5,25.5C 9.89254,23.7162 10.5592,22.0495 11.5,20.5C 15.6117,16.0467 20.2783,12.3801 25.5,9.5 Z"/></g>
<g><path style="opacity:1" fill="#b4944b" d="M 46.5,8.5 C 45.7375,9.26791 44.7375,9.76791 43.5,10C 43.7284,10.3988 44.0618,10.5654 44.5,10.5C 34.6503,13.3285 26.3169,18.6618 19.5,26.5C 25.7894,16.5617 34.7894,10.5617 46.5,8.5 Z"/></g>
<g><path style="opacity:0.533" fill="#37290e" d="M 213.5,15.5 C 216.352,22.326 214.019,24.9927 206.5,23.5C 206.666,30.8409 206.5,38.1742 206,45.5C 203.667,46.8333 201.333,46.8333 199,45.5C 198.5,38.1742 198.334,30.8409 198.5,23.5C 189.549,22.7697 180.549,23.103 171.5,24.5C 171.709,25.086 172.043,25.586 172.5,26C 176.833,26.3333 181.167,26.6667 185.5,27C 191.025,29.9188 192.858,34.4188 191,40.5C 189.841,43.4934 187.675,45.1601 184.5,45.5C 178.402,46.1167 172.735,45.45 167.5,43.5C 173.5,43.5 179.5,43.5 185.5,43.5C 187.404,43.2624 188.738,42.2624 189.5,40.5C 191.353,35.9354 190.353,32.102 186.5,29C 181.279,27.7677 175.946,27.1011 170.5,27C 169.663,25.9887 169.33,24.8221 169.5,23.5C 170.5,23.1667 171.167,22.5 171.5,21.5C 176.167,21.5 180.833,21.5 185.5,21.5C 187.256,20.4479 187.923,18.7812 187.5,16.5C 181.833,16.5 176.167,16.5 170.5,16.5C 168.596,16.7376 167.262,17.7376 166.5,19.5C 165.84,20.964 165.507,22.6307 165.5,24.5C 164.739,28.817 166.406,31.6503 170.5,33C 174.833,33.3333 179.167,33.6667 183.5,34C 184.833,35.3333 184.833,36.6667 183.5,38C 177.175,38.4995 170.842,38.6662 164.5,38.5C 170.31,37.5104 176.31,37.1771 182.5,37.5C 182.5,36.5 182.5,35.5 182.5,34.5C 177.821,34.6658 173.155,34.4992 168.5,34C 161.754,29.4609 160.754,23.7942 165.5,17C 169.733,14.9818 174.233,14.1485 179,14.5C 190.592,14.49 202.092,14.8234 213.5,15.5 Z"/></g>
<g><path style="opacity:1" fill="#645024" d="M 213.5,15.5 C 213.5,15.8333 213.5,16.1667 213.5,16.5C 206.492,16.3337 199.492,16.5004 192.5,17C 193.167,17.6667 193.833,18.3333 194.5,19C 196.708,19.1909 198.708,19.6909 200.5,20.5C 198.143,20.6633 195.81,20.4966 193.5,20C 191.963,18.8904 191.297,17.3904 191.5,15.5C 198.833,15.5 206.167,15.5 213.5,15.5 Z"/></g>
<g><path style="opacity:1" fill="#b39d5c" d="M 75.5,16.5 C 78.7642,18.0941 81.4309,20.4275 83.5,23.5C 83.5,23.8333 83.5,24.1667 83.5,24.5C 80.5,22.1667 77.8333,19.5 75.5,16.5 Z"/></g>
<g><path style="opacity:1" fill="#d6bc78" d="M 213.5,16.5 C 213.785,18.288 213.452,19.9547 212.5,21.5C 210.177,20.3284 207.844,20.3284 205.5,21.5C 205.167,21.5 204.833,21.5 204.5,21.5C 202.157,24.4236 201.824,27.757 203.5,31.5C 203.294,35.8982 203.627,40.2315 204.5,44.5C 203.069,44.1193 202.236,43.1193 202,41.5C 201.829,34.3213 201.329,27.3213 200.5,20.5C 198.708,19.6909 196.708,19.1909 194.5,19C 193.833,18.3333 193.167,17.6667 192.5,17C 199.492,16.5004 206.492,16.3337 213.5,16.5 Z"/></g>
<g><path style="opacity:1" fill="#e3cc83" d="M 170.5,16.5 C 176.167,16.5 181.833,16.5 187.5,16.5C 187.923,18.7812 187.256,20.4479 185.5,21.5C 185.389,20.8826 185.056,20.3826 184.5,20C 182.333,19.8333 180.167,19.6667 178,19.5C 175.39,19.5332 173.223,20.1999 171.5,21.5C 171.167,22.5 170.5,23.1667 169.5,23.5C 168.113,25.4888 168.447,27.3221 170.5,29C 174.833,29.3333 179.167,29.6667 183.5,30C 184.056,30.3826 184.389,30.8826 184.5,31.5C 179.456,31.8275 174.456,31.4941 169.5,30.5C 168.807,29.4822 168.141,28.4822 167.5,27.5C 166.944,23.3344 167.944,19.6677 170.5,16.5 Z"/></g>
<g><path style="opacity:0.383" fill="#35270d" d="M 164.5,38.5 C 164.285,40.1788 164.952,41.1788 166.5,41.5C 166.833,42.1667 167.167,42.8333 167.5,43.5C 172.735,45.45 178.402,46.1167 184.5,45.5C 177.296,46.7796 169.962,46.7796 162.5,45.5C 162.672,44.5084 162.338,43.8417 161.5,43.5C 158.575,35.8955 155.742,28.2288 153,20.5C 152.34,18.6763 151.173,17.343 149.5,16.5C 147.274,15.2437 144.941,15.2437 142.5,16.5C 140.72,17.9899 140.054,19.9899 140.5,22.5C 139.566,23.5676 139.232,24.901 139.5,26.5C 137.75,27.6594 136.75,29.326 136.5,31.5C 132.936,35.3764 131.602,40.043 132.5,45.5C 133.833,45.5 135.167,45.5 136.5,45.5C 134.372,46.6291 132.039,46.7958 129.5,46C 128.978,45.4387 128.645,44.772 128.5,44C 132.195,34.7759 136.029,25.6092 140,16.5C 144.665,13.5442 148.998,13.8775 153,17.5C 156.529,25.7536 159.862,34.087 163,42.5C 163.21,40.9419 163.71,39.6085 164.5,38.5 Z"/></g>
<g><path style="opacity:1" fill="#e5d8ad" d="M 149.5,16.5 C 151.173,17.343 152.34,18.6763 153,20.5C 155.742,28.2288 158.575,35.8955 161.5,43.5C 161.5,44.1667 161.167,44.5 160.5,44.5C 159.32,42.3071 158.32,39.9738 157.5,37.5C 157.043,36.7025 156.376,36.3691 155.5,36.5C 153.566,31.0468 151.233,25.7134 148.5,20.5C 148.461,19.4168 148.127,18.4168 147.5,17.5C 147.957,16.7025 148.624,16.3691 149.5,16.5 Z"/></g>
<g><path style="opacity:1" fill="#cbb16a" d="M 149.5,16.5 C 148.624,16.3691 147.957,16.7025 147.5,17.5C 148.127,18.4168 148.461,19.4168 148.5,20.5C 145.6,20.4078 143.933,21.7411 143.5,24.5C 143.631,23.7611 143.464,23.0944 143,22.5C 141.595,23.7305 140.429,25.0639 139.5,26.5C 139.232,24.901 139.566,23.5676 140.5,22.5C 142.28,21.0101 142.946,19.0101 142.5,16.5C 144.941,15.2437 147.274,15.2437 149.5,16.5 Z"/></g>
<g><path style="opacity:1" fill="#79683a" d="M 142.5,16.5 C 142.946,19.0101 142.28,21.0101 140.5,22.5C 140.054,19.9899 140.72,17.9899 142.5,16.5 Z"/></g>
<g><path style="opacity:1" fill="#766639" d="M 185.5,21.5 C 180.833,21.5 176.167,21.5 171.5,21.5C 173.223,20.1999 175.39,19.5332 178,19.5C 180.167,19.6667 182.333,19.8333 184.5,20C 185.056,20.3826 185.389,20.8826 185.5,21.5 Z"/></g>
<g><path style="opacity:1" fill="#ad9957" d="M 170.5,16.5 C 167.944,19.6677 166.944,23.3344 167.5,27.5C 166.527,25.0521 166.194,22.3854 166.5,19.5C 167.262,17.7376 168.596,16.7376 170.5,16.5 Z"/></g>
<g><path style="opacity:1" fill="#e1d186" d="M 17.5,23.5 C 16.9744,25.2303 15.9744,26.5637 14.5,27.5C 12.9826,27.5106 11.8159,28.1772 11,29.5C 10.0377,33.4195 8.53773,37.0862 6.5,40.5C 5.50776,44.7828 5.17443,49.1161 5.5,53.5C 4.51388,49.03 4.18054,44.3633 4.5,39.5C 4.5,39.1667 4.5,38.8333 4.5,38.5C 6.00751,36.8185 7.00751,34.8185 7.5,32.5C 9.55725,28.7335 11.8906,25.0668 14.5,21.5C 16.5983,20.0857 17.5983,20.7524 17.5,23.5 Z"/></g>
<g><path style="opacity:0.529" fill="#312308" d="M 11.5,19.5 C 11.5,19.8333 11.5,20.1667 11.5,20.5C 10.5592,22.0495 9.89254,23.7162 9.5,25.5C 6.1748,29.0854 4.50814,33.4187 4.5,38.5C 4.5,38.8333 4.5,39.1667 4.5,39.5C 4.16667,39.5 3.83333,39.5 3.5,39.5C 0.249182,54.1894 2.91585,67.856 11.5,80.5C 1.47323,69.0684 -2.02677,55.7351 1,40.5C 2.41724,32.3319 5.91724,25.3319 11.5,19.5 Z"/></g>
<g><path style="opacity:1" fill="#b7bbbf" d="M 62.5,19.5 C 65.4123,22.5813 68.7456,25.0813 72.5,27C 71.7476,27.6708 71.4142,28.5041 71.5,29.5C 71.1667,29.5 70.8333,29.5 70.5,29.5C 67.8333,26.8333 65.1667,24.1667 62.5,21.5C 61.8333,21.5 61.5,21.1667 61.5,20.5C 61.5,19.8333 61.8333,19.5 62.5,19.5 Z"/></g>
<g><path style="opacity:0.292" fill="#3e3115" d="M 148.5,20.5 C 151.233,25.7134 153.566,31.0468 155.5,36.5C 156.195,39.9154 157.862,42.5821 160.5,44.5C 161.167,44.5 161.5,44.1667 161.5,43.5C 162.338,43.8417 162.672,44.5084 162.5,45.5C 159.531,47.0063 156.698,46.673 154,44.5C 151.716,37.6402 149.049,30.9735 146,24.5C 143.315,31.8585 140.149,38.8585 136.5,45.5C 135.167,45.5 133.833,45.5 132.5,45.5C 131.602,40.043 132.936,35.3764 136.5,31.5C 136.5,32.1667 136.5,32.8333 136.5,33.5C 136.5,33.8333 136.5,34.1667 136.5,34.5C 133.271,37.7898 132.938,41.1231 135.5,44.5C 138.733,38.1484 141.4,31.4817 143.5,24.5C 143.933,21.7411 145.6,20.4078 148.5,20.5 Z"/></g>
<g><path style="opacity:0.203" fill="#35270b" d="M 113.5,14.5 C 119.176,14.3339 124.843,14.5006 130.5,15C 131.833,17.6667 131.833,20.3333 130.5,23C 125.177,23.4994 119.844,23.666 114.5,23.5C 114.5,24.5 114.5,25.5 114.5,26.5C 119.511,26.3341 124.511,26.5007 129.5,27C 131.68,29.4177 132.013,32.0844 130.5,35C 125.177,35.4994 119.844,35.666 114.5,35.5C 114.665,38.8499 114.498,42.1832 114,45.5C 111.333,46.8333 108.667,46.8333 106,45.5C 105.333,37.5 105.333,29.5 106,21.5C 107.742,18.2543 110.242,15.921 113.5,14.5 Z"/></g>
<g><path style="opacity:1" fill="#ccbb81" d="M 112.5,28.5 C 118.167,28.5 123.833,28.5 129.5,28.5C 129.5,30.1667 129.5,31.8333 129.5,33.5C 124.122,32.2704 118.789,32.2704 113.5,33.5C 118.1,31.8688 123.1,30.8688 128.5,30.5C 123.015,29.8332 117.681,29.1665 112.5,28.5 Z"/></g>
<g><path style="opacity:1" fill="#efdf9b" d="M 112.5,23.5 C 112.5,25.1667 112.5,26.8333 112.5,28.5C 117.681,29.1665 123.015,29.8332 128.5,30.5C 123.1,30.8688 118.1,31.8688 113.5,33.5C 112.833,33.5 112.5,33.8333 112.5,34.5C 112.813,38.0419 112.479,41.3752 111.5,44.5C 110.94,39.6953 110.273,35.0286 109.5,30.5C 109.5,28.1667 109.5,25.8333 109.5,23.5C 110.652,22.375 111.652,22.375 112.5,23.5 Z"/></g>
<g><path style="opacity:1" fill="#7e6e3e" d="M 111.5,17.5 C 110.833,19.5 110.167,21.5 109.5,23.5C 109.5,25.8333 109.5,28.1667 109.5,30.5C 109.5,34.1667 109.5,37.8333 109.5,41.5C 108.345,34.3451 108.178,27.0118 109,19.5C 109.708,18.6195 110.542,17.9528 111.5,17.5 Z"/></g>
<g><path style="opacity:1" fill="#a99356" d="M 126.5,19.5 C 127.5,19.5 128.5,19.5 129.5,19.5C 129.53,20.4972 129.03,21.1639 128,21.5C 123.245,19.8946 118.745,20.2279 114.5,22.5C 114.414,21.5041 114.748,20.6708 115.5,20C 119.152,19.5014 122.818,19.3347 126.5,19.5 Z"/></g>
<g><path style="opacity:1" fill="#d8bc6d" d="M 116.5,16.5 C 116.082,17.2216 115.416,17.7216 114.5,18C 118.688,18.1762 122.688,18.6762 126.5,19.5C 122.818,19.3347 119.152,19.5014 115.5,20C 114.748,20.6708 114.414,21.5041 114.5,22.5C 113.833,22.8333 113.167,23.1667 112.5,23.5C 111.652,22.375 110.652,22.375 109.5,23.5C 110.167,21.5 110.833,19.5 111.5,17.5C 113.042,16.6993 114.708,16.366 116.5,16.5 Z"/></g>
<g><path style="opacity:1" fill="#e9d294" d="M 116.5,16.5 C 120.833,16.5 125.167,16.5 129.5,16.5C 129.5,17.5 129.5,18.5 129.5,19.5C 128.5,19.5 127.5,19.5 126.5,19.5C 122.688,18.6762 118.688,18.1762 114.5,18C 115.416,17.7216 116.082,17.2216 116.5,16.5 Z"/></g>
<g><path style="opacity:1" fill="#e3d7a2" d="M 169.5,23.5 C 169.33,24.8221 169.663,25.9887 170.5,27C 175.946,27.1011 181.279,27.7677 186.5,29C 190.353,32.102 191.353,35.9354 189.5,40.5C 187.98,38.4116 186.98,36.0783 186.5,33.5C 185.5,33.1667 184.833,32.5 184.5,31.5C 184.389,30.8826 184.056,30.3826 183.5,30C 179.167,29.6667 174.833,29.3333 170.5,29C 168.447,27.3221 168.113,25.4888 169.5,23.5 Z"/></g>
<g><path style="opacity:1" fill="#c9ba92" d="M 204.5,21.5 C 204.833,21.5 205.167,21.5 205.5,21.5C 205.825,29.3516 205.492,37.0182 204.5,44.5C 203.627,40.2315 203.294,35.8982 203.5,31.5C 204.479,28.3752 204.813,25.0419 204.5,21.5 Z"/></g>
<g><path style="opacity:1" fill="#909497" d="M 70.5,29.5 C 70.8333,29.5 71.1667,29.5 71.5,29.5C 75.8973,34.2977 78.064,39.9644 78,46.5C 76.5886,44.3496 75.7553,42.0163 75.5,39.5C 74.3583,35.8832 72.6916,32.5498 70.5,29.5 Z"/></g>
<g><path style="opacity:1" fill="#454b50" d="M 62.5,21.5 C 65.1667,24.1667 67.8333,26.8333 70.5,29.5C 72.6916,32.5498 74.3583,35.8832 75.5,39.5C 73.8437,37.5398 72.177,35.5398 70.5,33.5C 69.713,31.8958 68.3797,31.2291 66.5,31.5C 65.209,31.7373 64.209,31.404 63.5,30.5C 64.1408,29.5178 64.8075,28.5178 65.5,27.5C 63.9617,25.7567 62.9617,23.7567 62.5,21.5 Z"/></g>
<g><path style="opacity:1" fill="#f9f0b9" d="M 204.5,21.5 C 204.813,25.0419 204.479,28.3752 203.5,31.5C 201.824,27.757 202.157,24.4236 204.5,21.5 Z"/></g>
<g><path style="opacity:1" fill="#463f24" d="M 65.5,12.5 C 68.8333,13.8333 72.1667,15.1667 75.5,16.5C 77.8333,19.5 80.5,22.1667 83.5,24.5C 87.4086,28.3172 89.742,32.9838 90.5,38.5C 92.34,47.7462 91.5067,56.7462 88,65.5C 87.6232,66.9423 86.7899,67.9423 85.5,68.5C 94.1232,47.9885 89.7898,30.9885 72.5,17.5C 69.9906,16.0787 67.6572,14.4121 65.5,12.5 Z"/></g>
<g><path style="opacity:0.475" fill="#31240b" d="M 66.5,31.5 C 68.3797,31.2291 69.713,31.8958 70.5,33.5C 70.1667,33.5 69.8333,33.5 69.5,33.5C 68.8333,33.5 68.5,33.8333 68.5,34.5C 67.5084,34.3284 66.8417,34.6618 66.5,35.5C 64.8333,36.5 63.5,37.8333 62.5,39.5C 61.8336,46.8257 61.5003,54.3257 61.5,62C 61.5025,69.8644 62.1692,77.3644 63.5,84.5C 63.5,85.1667 63.5,85.8333 63.5,86.5C 61.597,86.7959 59.9303,87.4625 58.5,88.5C 51.0131,88.9418 43.6798,88.1084 36.5,86C 32.5891,84.5558 29.2558,82.3891 26.5,79.5C 27.1667,79.5 27.8333,79.5 28.5,79.5C 31.1932,80.8466 33.8599,82.1799 36.5,83.5C 38.5983,84.9143 39.5983,84.2476 39.5,81.5C 39.8257,73.3159 39.4924,65.3159 38.5,57.5C 38.8417,56.6618 39.5084,56.3284 40.5,56.5C 41.3302,66.3249 41.8302,76.3249 42,86.5C 42.6667,75.5 42.6667,64.5 42,53.5C 41.6174,54.056 41.1174,54.3893 40.5,54.5C 40.5,54.1667 40.5,53.8333 40.5,53.5C 46.4602,48.5104 52.4602,43.5104 58.5,38.5C 61.5819,36.6281 64.2486,34.2948 66.5,31.5 Z M 57.5,40.5 C 58.8309,47.803 59.4976,55.4697 59.5,63.5C 59.1667,71.1667 58.8333,78.8333 58.5,86.5C 57.1776,72.2702 57.1776,58.1035 58.5,44C 56.6269,43.0471 56.2935,41.8804 57.5,40.5 Z"/></g>
<g><path style="opacity:1" fill="#8c804e" d="M 139.5,26.5 C 139.065,29.1573 138.065,31.4907 136.5,33.5C 136.5,32.8333 136.5,32.1667 136.5,31.5C 136.75,29.326 137.75,27.6594 139.5,26.5 Z"/></g>
<g><path style="opacity:1" fill="#514625" d="M 166.5,19.5 C 166.194,22.3854 166.527,25.0521 167.5,27.5C 168.141,28.4822 168.807,29.4822 169.5,30.5C 174.456,31.4941 179.456,31.8275 184.5,31.5C 184.833,32.5 185.5,33.1667 186.5,33.5C 186.739,35.4672 186.406,37.3005 185.5,39C 178.415,39.1488 172.081,39.6488 166.5,40.5C 166.5,40.8333 166.5,41.1667 166.5,41.5C 164.952,41.1788 164.285,40.1788 164.5,38.5C 170.842,38.6662 177.175,38.4995 183.5,38C 184.833,36.6667 184.833,35.3333 183.5,34C 179.167,33.6667 174.833,33.3333 170.5,33C 166.406,31.6503 164.739,28.817 165.5,24.5C 165.507,22.6307 165.84,20.964 166.5,19.5 Z"/></g>
<g><path style="opacity:0.493" fill="#34270f" d="M 61.5,18.5 C 61.5,18.1667 61.5,17.8333 61.5,17.5C 65.1804,20.3406 69.0138,23.0072 73,25.5C 76.041,32.2604 78.541,39.2604 80.5,46.5C 80.4731,48.7044 79.4731,49.5378 77.5,49C 76.283,47.3523 75.4497,45.519 75,43.5C 74.1739,55.3407 74.3405,67.0073 75.5,78.5C 75.5,78.8333 75.5,79.1667 75.5,79.5C 75.5,79.8333 75.5,80.1667 75.5,80.5C 71.7422,82.9095 67.7422,84.9095 63.5,86.5C 63.5,85.8333 63.5,85.1667 63.5,84.5C 64.1667,84.5 64.5,84.1667 64.5,83.5C 66.8185,83.0075 68.8185,82.0075 70.5,80.5C 71.1667,80.5 71.5,80.1667 71.5,79.5C 72.8298,73.537 73.4964,67.2037 73.5,60.5C 73.3333,54.1667 73.1667,47.8333 73,41.5C 72.2828,40.9558 71.7828,40.2891 71.5,39.5C 70.5,37.8333 69.1667,36.5 67.5,35.5C 67.1667,35.5 66.8333,35.5 66.5,35.5C 66.8417,34.6618 67.5084,34.3284 68.5,34.5C 69.1667,34.5 69.5,34.1667 69.5,33.5C 69.8333,33.5 70.1667,33.5 70.5,33.5C 72.177,35.5398 73.8437,37.5398 75.5,39.5C 75.7553,42.0163 76.5886,44.3496 78,46.5C 78.064,39.9644 75.8973,34.2977 71.5,29.5C 71.4142,28.5041 71.7476,27.6708 72.5,27C 68.7456,25.0813 65.4123,22.5813 62.5,19.5C 62.5,18.8333 62.1667,18.5 61.5,18.5 Z"/></g>
<g><path style="opacity:1" fill="#4f4220" d="M 129.5,33.5 C 124.025,34.4889 118.358,34.8222 112.5,34.5C 112.5,33.8333 112.833,33.5 113.5,33.5C 118.789,32.2704 124.122,32.2704 129.5,33.5 Z"/></g>
<g><path style="opacity:0.525" fill="#302105" d="M 70.5,17.5 C 71.1667,17.5 71.8333,17.5 72.5,17.5C 89.7898,30.9885 94.1232,47.9885 85.5,68.5C 82.9056,72.7648 79.5722,76.4314 75.5,79.5C 75.5,79.1667 75.5,78.8333 75.5,78.5C 89.1426,64.3082 91.6426,48.3082 83,30.5C 79.3028,25.6377 75.1361,21.3043 70.5,17.5 Z"/></g>
<g><path style="opacity:1" fill="#7d838b" d="M 63.5,30.5 C 64.209,31.404 65.209,31.7373 66.5,31.5C 64.2486,34.2948 61.5819,36.6281 58.5,38.5C 57.7494,37.4265 56.7494,37.2599 55.5,38C 52.8607,40.4827 49.8607,42.316 46.5,43.5C 51.8581,38.8144 57.5247,34.4811 63.5,30.5 Z"/></g>
<g><path style="opacity:1" fill="#cdaa61" d="M 109.5,30.5 C 110.273,35.0286 110.94,39.6953 111.5,44.5C 109.952,44.1788 109.285,43.1788 109.5,41.5C 109.5,37.8333 109.5,34.1667 109.5,30.5 Z"/></g>
<g><path style="opacity:1" fill="#f6ebae" d="M 14.5,27.5 C 13.8333,29.5 13.1667,31.5 12.5,33.5C 10.7234,36.5046 9.7234,39.8379 9.5,43.5C 7.94622,47.5667 7.27955,51.9 7.5,56.5C 6.83333,55.5 6.16667,54.5 5.5,53.5C 5.17443,49.1161 5.50776,44.7828 6.5,40.5C 8.53773,37.0862 10.0377,33.4195 11,29.5C 11.8159,28.1772 12.9826,27.5106 14.5,27.5 Z"/></g>
<g><path style="opacity:0.387" fill="#33250e" d="M 51.5,13.5 C 52.1667,13.5 52.8333,13.5 53.5,13.5C 53.5,13.8333 53.5,14.1667 53.5,14.5C 52.2617,14.81 52.2617,15.31 53.5,16C 56.0594,17.7774 58.7261,19.2774 61.5,20.5C 61.5,21.1667 61.8333,21.5 62.5,21.5C 62.9617,23.7567 63.9617,25.7567 65.5,27.5C 64.8075,28.5178 64.1408,29.5178 63.5,30.5C 57.5247,34.4811 51.8581,38.8144 46.5,43.5C 42.4617,46.5116 38.4617,49.5116 34.5,52.5C 31.9906,53.9213 29.6572,55.5879 27.5,57.5C 27.5,57.1667 27.5,56.8333 27.5,56.5C 39.1465,47.0305 50.9799,37.6971 63,28.5C 62.956,26.7215 62.2893,25.0548 61,23.5C 57.6667,20.8333 54.3333,18.1667 51,15.5C 50.3083,14.5632 50.475,13.8966 51.5,13.5 Z"/></g>
<g><path style="opacity:0.373" fill="#37280c" d="M 83.5,82.5 C 83.5,82.1667 83.5,81.8333 83.5,81.5C 86.2948,79.2486 88.6281,76.5819 90.5,73.5C 92.5439,70.3771 94.2105,67.0438 95.5,63.5C 100.862,43.2456 95.1957,26.9123 78.5,14.5C 78.7148,12.8212 78.0481,11.8212 76.5,11.5C 71.9297,7.63535 66.5964,5.30202 60.5,4.5C 55.4105,2.75832 50.0772,2.25832 44.5,3C 37.397,3.24038 31.0637,5.40705 25.5,9.5C 20.2783,12.3801 15.6117,16.0467 11.5,20.5C 11.5,20.1667 11.5,19.8333 11.5,19.5C 26.2872,2.38204 44.6205,-2.78463 66.5,4C 70.9926,6.07899 75.326,8.41232 79.5,11C 81.2519,15.0878 84.0852,18.2545 88,20.5C 103.333,40.1667 103.333,59.8333 88,79.5C 86.871,81.1412 85.371,82.1412 83.5,82.5 Z"/></g>
<g><path style="opacity:1" fill="#686d71" d="M 53.5,14.5 C 56.4502,15.3084 59.1169,16.6418 61.5,18.5C 62.1667,18.5 62.5,18.8333 62.5,19.5C 61.8333,19.5 61.5,19.8333 61.5,20.5C 58.7261,19.2774 56.0594,17.7774 53.5,16C 52.2617,15.31 52.2617,14.81 53.5,14.5 Z"/></g>
<g><path style="opacity:1" fill="#cdb36d" d="M 73.5,12.5 C 72.7611,12.369 72.0944,12.5357 71.5,13C 73.5444,13.4983 74.8777,14.665 75.5,16.5C 72.1667,15.1667 68.8333,13.8333 65.5,12.5C 58.6656,10.7168 51.6656,10.0501 44.5,10.5C 44.0618,10.5654 43.7284,10.3988 43.5,10C 44.7375,9.76791 45.7375,9.26791 46.5,8.5C 55.9544,6.48772 64.9544,7.82105 73.5,12.5 Z"/></g>
<g><path style="opacity:1" fill="#c7ae76" d="M 58.5,5.5 C 58.8417,4.66175 59.5084,4.32842 60.5,4.5C 66.5964,5.30202 71.9297,7.63535 76.5,11.5C 70.802,8.57594 64.802,6.57594 58.5,5.5 Z"/></g>
<g><path style="opacity:1" fill="#68613a" d="M 9.5,25.5 C 8.83333,27.8333 8.16667,30.1667 7.5,32.5C 7.00751,34.8185 6.00751,36.8185 4.5,38.5C 4.50814,33.4187 6.1748,29.0854 9.5,25.5 Z"/></g>
<g><path style="opacity:1" fill="#ceae6c" d="M 155.5,36.5 C 156.376,36.3691 157.043,36.7025 157.5,37.5C 158.32,39.9738 159.32,42.3071 160.5,44.5C 157.862,42.5821 156.195,39.9154 155.5,36.5 Z"/></g>
<g><path style="opacity:1" fill="#e0cd91" d="M 143.5,24.5 C 141.4,31.4817 138.733,38.1484 135.5,44.5C 135.616,41.1401 135.949,37.8067 136.5,34.5C 136.5,34.1667 136.5,33.8333 136.5,33.5C 138.065,31.4907 139.065,29.1573 139.5,26.5C 140.429,25.0639 141.595,23.7305 143,22.5C 143.464,23.0944 143.631,23.7611 143.5,24.5 Z"/></g>
<g><path style="opacity:1" fill="#ac883e" d="M 136.5,34.5 C 135.949,37.8067 135.616,41.1401 135.5,44.5C 132.938,41.1231 133.271,37.7898 136.5,34.5 Z"/></g>
<g><path style="opacity:1" fill="#caa556" d="M 186.5,33.5 C 186.98,36.0783 187.98,38.4116 189.5,40.5C 188.738,42.2624 187.404,43.2624 185.5,43.5C 179.146,43.0051 172.813,42.0051 166.5,40.5C 172.081,39.6488 178.415,39.1488 185.5,39C 186.406,37.3005 186.739,35.4672 186.5,33.5 Z"/></g>
<g><path style="opacity:1" fill="#8d6a23" d="M 166.5,40.5 C 172.813,42.0051 179.146,43.0051 185.5,43.5C 179.5,43.5 173.5,43.5 167.5,43.5C 167.167,42.8333 166.833,42.1667 166.5,41.5C 166.5,41.1667 166.5,40.8333 166.5,40.5 Z"/></g>
<g><path style="opacity:1" fill="#ede3b8" d="M 73.5,12.5 C 75.2838,12.8925 76.9505,13.5592 78.5,14.5C 95.1957,26.9123 100.862,43.2456 95.5,63.5C 94.6712,56.3448 94.1712,49.0115 94,41.5C 92.4803,37.0681 90.8136,32.7348 89,28.5C 87.5736,26.2342 85.7402,24.5676 83.5,23.5C 81.4309,20.4275 78.7642,18.0941 75.5,16.5C 74.8777,14.665 73.5444,13.4983 71.5,13C 72.0944,12.5357 72.7611,12.369 73.5,12.5 Z"/></g>
<g><path style="opacity:1" fill="#766a40" d="M 3.5,39.5 C 3.83333,39.5 4.16667,39.5 4.5,39.5C 4.18054,44.3633 4.51388,49.03 5.5,53.5C 5.46179,58.7157 6.46179,63.7157 8.5,68.5C 5.95053,65.0339 4.45053,61.0339 4,56.5C 3.50058,50.8431 3.33391,45.1764 3.5,39.5 Z"/></g>
<g><path style="opacity:1" fill="#a9aeb6" d="M 58.5,38.5 C 52.4602,43.5104 46.4602,48.5104 40.5,53.5C 38.5887,54.075 36.922,55.075 35.5,56.5C 34.6236,56.6309 33.9569,56.2975 33.5,55.5C 34.1272,54.5832 34.4606,53.5832 34.5,52.5C 38.4617,49.5116 42.4617,46.5116 46.5,43.5C 49.8607,42.316 52.8607,40.4827 55.5,38C 56.7494,37.2599 57.7494,37.4265 58.5,38.5 Z"/></g>
<g><path style="opacity:1" fill="#7a838e" d="M 66.5,35.5 C 66.8333,35.5 67.1667,35.5 67.5,35.5C 69.3117,40.283 69.8117,45.283 69,50.5C 67.5295,51.2666 66.0295,51.9332 64.5,52.5C 64.4399,46.7053 65.1065,41.0387 66.5,35.5 Z"/></g>
<g><path style="opacity:1" fill="#27292c" d="M 62.5,39.5 C 62.1721,50.6794 62.5054,61.6794 63.5,72.5C 63.5,74.1667 63.5,75.8333 63.5,77.5C 63.2053,79.7354 63.5386,81.7354 64.5,83.5C 64.5,84.1667 64.1667,84.5 63.5,84.5C 62.1692,77.3644 61.5025,69.8644 61.5,62C 61.5003,54.3257 61.8336,46.8257 62.5,39.5 Z"/></g>
<g><path style="opacity:0.425" fill="#34260e" d="M 122.5,51.5 C 124.56,50.1888 126.726,50.1888 129,51.5C 129.497,54.146 129.664,56.8127 129.5,59.5C 144.074,57.9054 150.241,64.2388 148,78.5C 146.5,81.3333 144.333,83.5 141.5,85C 136.5,85.6667 131.5,85.6667 126.5,85C 123.019,82.838 121.185,79.6713 121,75.5C 120.333,67.8333 120.333,60.1667 121,52.5C 121.383,51.944 121.883,51.6107 122.5,51.5 Z M 129.5,68.5 C 132.85,68.335 136.183,68.5017 139.5,69C 140.833,71.6667 140.833,74.3333 139.5,77C 136.183,77.4983 132.85,77.665 129.5,77.5C 129.5,74.5 129.5,71.5 129.5,68.5 Z"/></g>
<g><path style="opacity:0.582" fill="#302208" d="M 186.5,51.5 C 187.473,53.9479 187.806,56.6146 187.5,59.5C 204.443,58.2599 210.276,65.5932 205,81.5C 203.786,83.0488 202.286,84.2155 200.5,85C 195.5,85.6667 190.5,85.6667 185.5,85C 182.619,83.7494 180.786,81.5827 180,78.5C 179.333,69.5 179.333,60.5 180,51.5C 182.274,50.1888 184.44,50.1888 186.5,51.5 Z M 187.5,68.5 C 191.167,68.5 194.833,68.5 198.5,68.5C 198.5,71.5 198.5,74.5 198.5,77.5C 195.102,77.8204 191.768,77.487 188.5,76.5C 187.607,73.9159 187.274,71.2492 187.5,68.5 Z"/></g>
<g><path style="opacity:0.5" fill="#312510" d="M 40.5,53.5 C 40.5,53.8333 40.5,54.1667 40.5,54.5C 40.5,55.1667 40.5,55.8333 40.5,56.5C 39.5084,56.3284 38.8417,56.6618 38.5,57.5C 38.1667,58.5 37.5,59.1667 36.5,59.5C 34.1415,61.5293 31.8082,63.5293 29.5,65.5C 28.8826,65.6107 28.3826,65.944 28,66.5C 27.2316,70.9196 27.3982,75.2529 28.5,79.5C 27.8333,79.5 27.1667,79.5 26.5,79.5C 25.1667,78.8333 24.1667,77.8333 23.5,76.5C 24.7647,75.4855 25.4313,73.9855 25.5,72C 25.1667,70.5 24.8333,69 24.5,67.5C 20.8303,65.9509 19.8303,63.4509 21.5,60C 23.4048,58.5787 25.4048,57.412 27.5,56.5C 27.5,56.8333 27.5,57.1667 27.5,57.5C 26.0384,58.4577 24.7051,59.6244 23.5,61C 24.7014,61.9025 25.5348,63.0692 26,64.5C 29.3575,61.9688 32.5242,59.3021 35.5,56.5C 36.922,55.075 38.5887,54.075 40.5,53.5 Z"/></g>
<g><path style="opacity:1" fill="#787e86" d="M 64.5,52.5 C 64.5,57.1667 64.5,61.8333 64.5,66.5C 64.3354,69.5184 64.502,72.5184 65,75.5C 67.0693,77.0854 69.236,78.4187 71.5,79.5C 71.5,80.1667 71.1667,80.5 70.5,80.5C 68.5,80.5 66.5,80.5 64.5,80.5C 64.7373,79.209 64.404,78.209 63.5,77.5C 63.5,75.8333 63.5,74.1667 63.5,72.5C 63.176,65.6457 63.5093,58.979 64.5,52.5 Z"/></g>
<g><path style="opacity:1" fill="#a0a8b2" d="M 67.5,35.5 C 69.1667,36.5 70.5,37.8333 71.5,39.5C 71.6844,46.0629 71.0178,52.7296 69.5,59.5C 67.8762,59.6399 66.7096,58.9733 66,57.5C 65.8195,60.6946 65.3195,63.6946 64.5,66.5C 64.5,61.8333 64.5,57.1667 64.5,52.5C 66.0295,51.9332 67.5295,51.2666 69,50.5C 69.8117,45.283 69.3117,40.283 67.5,35.5 Z"/></g>
<g><path style="opacity:1" fill="#ddc181" d="M 5.5,53.5 C 6.16667,54.5 6.83333,55.5 7.5,56.5C 8.46165,61.9899 9.79498,67.3232 11.5,72.5C 11.1667,72.5 10.8333,72.5 10.5,72.5C 9.83333,71.1667 9.16667,69.8333 8.5,68.5C 6.46179,63.7157 5.46179,58.7157 5.5,53.5 Z"/></g>
<g><path style="opacity:1" fill="#69727a" d="M 34.5,52.5 C 34.4606,53.5832 34.1272,54.5832 33.5,55.5C 33.9569,56.2975 34.6236,56.6309 35.5,56.5C 32.5242,59.3021 29.3575,61.9688 26,64.5C 25.5348,63.0692 24.7014,61.9025 23.5,61C 24.7051,59.6244 26.0384,58.4577 27.5,57.5C 29.6572,55.5879 31.9906,53.9213 34.5,52.5 Z"/></g>
<g><path style="opacity:1" fill="#6a6f76" d="M 53.5,46.5 C 53.5087,50.354 51.6754,52.6874 48,53.5C 47.5006,59.1569 47.3339,64.8236 47.5,70.5C 47.5,72.1667 47.5,73.8333 47.5,75.5C 46.5076,67.6841 46.1743,59.6841 46.5,51.5C 48.5549,49.4453 50.8883,47.7787 53.5,46.5 Z"/></g>
<g><path style="opacity:1" fill="#4b4f54" d="M 66.5,35.5 C 65.1065,41.0387 64.4399,46.7053 64.5,52.5C 63.5093,58.979 63.176,65.6457 63.5,72.5C 62.5054,61.6794 62.1721,50.6794 62.5,39.5C 63.5,37.8333 64.8333,36.5 66.5,35.5 Z"/></g>
<g><path style="opacity:1" fill="#323539" d="M 46.5,51.5 C 46.1743,59.6841 46.5076,67.6841 47.5,75.5C 47.5,76.1667 47.5,76.8333 47.5,77.5C 47.5,79.5 47.5,81.5 47.5,83.5C 49.1667,83.5 50.8333,83.5 52.5,83.5C 53.5,84.1667 54.5,84.8333 55.5,85.5C 55.8333,85.5 56.1667,85.5 56.5,85.5C 52.7016,86.4834 48.7016,86.8168 44.5,86.5C 44.3335,75.1618 44.5001,63.8284 45,52.5C 45.3826,51.944 45.8826,51.6107 46.5,51.5 Z"/></g>
<g><path style="opacity:1" fill="#9ba0a6" d="M 56.5,85.5 C 56.1667,85.5 55.8333,85.5 55.5,85.5C 55.5,84.1667 55.5,82.8333 55.5,81.5C 55.5,74.5 55.5,67.5 55.5,60.5C 55.6646,57.4816 55.498,54.4816 55,51.5C 54.0593,54.8147 53.226,58.148 52.5,61.5C 51.3112,62.4287 49.9778,62.762 48.5,62.5C 48.8064,65.3854 48.4731,68.0521 47.5,70.5C 47.3339,64.8236 47.5006,59.1569 48,53.5C 51.6754,52.6874 53.5087,50.354 53.5,46.5C 53.811,45.5222 54.4777,44.8555 55.5,44.5C 56.4992,58.1504 56.8325,71.8171 56.5,85.5 Z"/></g>
<g><path style="opacity:1" fill="#e1cb8a" d="M 83.5,24.5 C 83.5,24.1667 83.5,23.8333 83.5,23.5C 85.7402,24.5676 87.5736,26.2342 89,28.5C 90.8136,32.7348 92.4803,37.0681 94,41.5C 94.1712,49.0115 94.6712,56.3448 95.5,63.5C 94.2105,67.0438 92.5439,70.3771 90.5,73.5C 89.5222,73.189 88.8555,72.5223 88.5,71.5C 89.1936,68.9124 90.3602,66.579 92,64.5C 92.4974,61.854 92.6641,59.1873 92.5,56.5C 92.6659,51.4889 92.4993,46.4889 92,41.5C 91.7679,40.2625 91.2679,39.2625 90.5,38.5C 89.742,32.9838 87.4086,28.3172 83.5,24.5 Z"/></g>
<g><path style="opacity:0.701" fill="#2f2004" d="M 175.5,66.5 C 173.754,64.7484 171.754,63.4151 169.5,62.5C 164.167,61.1667 158.833,61.1667 153.5,62.5C 152.883,62.6107 152.383,62.944 152,63.5C 151.833,67 151.667,70.5 151.5,74C 151.512,77.9018 152.179,81.4018 153.5,84.5C 154.833,84.5 156.167,84.5 157.5,84.5C 155.393,85.4682 153.059,85.8016 150.5,85.5C 150.334,77.8261 150.5,70.1594 151,62.5C 153.306,60.1119 156.139,59.1119 159.5,59.5C 163.196,59.7826 166.863,60.2826 170.5,61C 173.079,62.0757 174.746,63.909 175.5,66.5 Z"/></g>
<g><path style="opacity:1" fill="#858d94" d="M 169.5,62.5 C 169.062,62.4346 168.728,62.6012 168.5,63C 170.426,63.4224 171.426,64.5891 171.5,66.5C 167.462,64.4784 163.129,63.9784 158.5,65C 157.944,65.3826 157.611,65.8826 157.5,66.5C 156.833,66.5 156.5,66.8333 156.5,67.5C 155.5,67.5 154.5,67.5 153.5,67.5C 153.5,65.8333 153.5,64.1667 153.5,62.5C 158.833,61.1667 164.167,61.1667 169.5,62.5 Z"/></g>
<g><path style="opacity:1" fill="#3a3d40" d="M 186.5,51.5 C 186.5,51.8333 186.5,52.1667 186.5,52.5C 185.5,52.5 184.5,52.5 183.5,52.5C 182.954,61.6657 183.621,70.6657 185.5,79.5C 184,78.3748 182.667,77.0414 181.5,75.5C 181.5,67.5 181.5,59.5 181.5,51.5C 183.167,51.5 184.833,51.5 186.5,51.5 Z"/></g>
<g><path style="opacity:1" fill="#70767e" d="M 36.5,59.5 C 37.1667,62.8332 35.8333,64.8332 32.5,65.5C 30.3056,68.9993 29.9722,72.666 31.5,76.5C 30.8826,76.3893 30.3826,76.056 30,75.5C 29.5017,72.1832 29.335,68.8499 29.5,65.5C 31.8082,63.5293 34.1415,61.5293 36.5,59.5 Z"/></g>
<g><path style="opacity:1" fill="#a3a8af" d="M 127.5,52.5 C 127.5,55.5 127.5,58.5 127.5,61.5C 132.998,61.0682 138.331,61.7348 143.5,63.5C 144.333,64.5 145.167,65.5 146,66.5C 146.667,70.5 146.667,74.5 146,78.5C 145.252,80.751 143.752,82.0844 141.5,82.5C 136.227,82.4571 131.227,81.4571 126.5,79.5C 125.732,78.7375 125.232,77.7375 125,76.5C 124.5,68.5069 124.334,60.5069 124.5,52.5C 125.5,52.5 126.5,52.5 127.5,52.5 Z M 129.5,68.5 C 129.5,71.5 129.5,74.5 129.5,77.5C 132.85,77.665 136.183,77.4983 139.5,77C 140.833,74.3333 140.833,71.6667 139.5,69C 136.183,68.5017 132.85,68.335 129.5,68.5 Z"/></g>
<g><path style="opacity:1" fill="#a9aeb4" d="M 186.5,52.5 C 186.5,55.5 186.5,58.5 186.5,61.5C 201.002,58.5095 207.169,64.1762 205,78.5C 203.629,80.0414 202.129,81.3747 200.5,82.5C 198.833,82.5 197.167,82.5 195.5,82.5C 192.417,81.0073 189.083,80.0073 185.5,79.5C 183.621,70.6657 182.954,61.6657 183.5,52.5C 184.5,52.5 185.5,52.5 186.5,52.5 Z M 187.5,68.5 C 187.274,71.2492 187.607,73.9159 188.5,76.5C 191.768,77.487 195.102,77.8204 198.5,77.5C 198.5,74.5 198.5,71.5 198.5,68.5C 194.833,68.5 191.167,68.5 187.5,68.5 Z"/></g>
<g><path style="opacity:1" fill="#ccab61" d="M 92.5,56.5 C 92.6641,59.1873 92.4974,61.854 92,64.5C 90.3602,66.579 89.1936,68.9124 88.5,71.5C 88.8555,72.5223 89.5222,73.189 90.5,73.5C 88.6281,76.5819 86.2948,79.2486 83.5,81.5C 83.4606,80.4168 83.1272,79.4168 82.5,78.5C 84.4446,75.6067 86.1113,72.6067 87.5,69.5C 89.9244,65.4782 91.5911,61.1448 92.5,56.5 Z"/></g>
<g><path style="opacity:1" fill="#3f4347" d="M 200.5,76.5 C 201.006,72.9929 200.34,69.8263 198.5,67C 194.848,66.5014 191.182,66.3347 187.5,66.5C 189.048,65.2057 191.048,64.5391 193.5,64.5C 202.504,64.8183 204.838,68.8183 200.5,76.5 Z"/></g>
<g><path style="opacity:0.487" fill="#3f3014" d="M 12.5,33.5 C 12.8333,33.5 13.1667,33.5 13.5,33.5C 9.0022,46.1883 9.83554,58.5217 16,70.5C 16.7175,69.5494 17.5509,69.3828 18.5,70C 20.7899,71.7772 22.4566,73.9438 23.5,76.5C 22.2058,75.7101 21.0391,74.7101 20,73.5C 25.0726,82.6518 32.906,88.3185 43.5,90.5C 46.8646,92.0392 50.5313,92.7058 54.5,92.5C 61.3719,92.03 68.0386,90.8633 74.5,89C 65.7095,93.3001 56.3761,95.1334 46.5,94.5C 38.7232,92.2806 31.3899,88.9473 24.5,84.5C 12.9898,73.3102 7.98979,59.6436 9.5,43.5C 9.7234,39.8379 10.7234,36.5046 12.5,33.5 Z"/></g>
<g><path style="opacity:0.401" fill="#30230a" d="M 187.5,66.5 C 191.182,66.3347 194.848,66.5014 198.5,67C 200.34,69.8263 201.006,72.9929 200.5,76.5C 200.047,77.4584 199.381,78.2917 198.5,79C 187.149,81.485 183.482,77.3184 187.5,66.5 Z M 187.5,68.5 C 187.274,71.2492 187.607,73.9159 188.5,76.5C 191.768,77.487 195.102,77.8204 198.5,77.5C 198.5,74.5 198.5,71.5 198.5,68.5C 194.833,68.5 191.167,68.5 187.5,68.5 Z"/></g>
<g><path style="opacity:1" fill="#e3d4af" d="M 9.5,43.5 C 7.98979,59.6436 12.9898,73.3102 24.5,84.5C 23.8333,84.5 23.1667,84.5 22.5,84.5C 18.096,81.0994 14.4293,77.0994 11.5,72.5C 9.79498,67.3232 8.46165,61.9899 7.5,56.5C 7.27955,51.9 7.94622,47.5667 9.5,43.5 Z"/></g>
<g><path style="opacity:0.508" fill="#32240b" d="M 157.5,66.5 C 161.911,66.021 166.078,66.6876 170,68.5C 170.499,73.8229 170.666,79.1563 170.5,84.5C 172.415,84.7845 174.081,84.4511 175.5,83.5C 175.5,83.1667 175.5,82.8333 175.5,82.5C 175.5,77.1667 175.5,71.8333 175.5,66.5C 176.222,66.9175 176.722,67.5842 177,68.5C 177.806,74.0838 177.639,79.5838 176.5,85C 173.901,85.769 171.401,85.6023 169,84.5C 168.501,79.1771 168.334,73.8437 168.5,68.5C 165.167,68.5 161.833,68.5 158.5,68.5C 158.821,74.0262 158.488,79.3595 157.5,84.5C 157.5,78.5 157.5,72.5 157.5,66.5 Z"/></g>
<g><path style="opacity:1" fill="#d7dae0" d="M 55.5,60.5 C 55.5,67.5 55.5,74.5 55.5,81.5C 52.3808,79.39 50.0475,76.7234 48.5,73.5C 50.1667,73.5 51.8333,73.5 53.5,73.5C 53.335,70.1501 53.5017,66.8168 54,63.5C 54.2321,62.2625 54.7321,61.2625 55.5,60.5 Z"/></g>
<g><path style="opacity:1" fill="#cacdd3" d="M 153.5,67.5 C 154.5,67.5 155.5,67.5 156.5,67.5C 156.666,72.5111 156.499,77.5111 156,82.5C 155.015,80.8251 154.181,79.1585 153.5,77.5C 153.5,74.1667 153.5,70.8333 153.5,67.5 Z"/></g>
<g><path style="opacity:1" fill="#b5bac3" d="M 55.5,60.5 C 54.7321,61.2625 54.2321,62.2625 54,63.5C 53.5017,66.8168 53.335,70.1501 53.5,73.5C 51.8333,73.5 50.1667,73.5 48.5,73.5C 50.0475,76.7234 52.3808,79.39 55.5,81.5C 55.5,82.8333 55.5,84.1667 55.5,85.5C 54.5,84.8333 53.5,84.1667 52.5,83.5C 52.3129,80.3095 50.6462,78.3095 47.5,77.5C 47.5,76.8333 47.5,76.1667 47.5,75.5C 47.5,73.8333 47.5,72.1667 47.5,70.5C 48.4731,68.0521 48.8064,65.3854 48.5,62.5C 49.9778,62.762 51.3112,62.4287 52.5,61.5C 53.226,58.148 54.0593,54.8147 55,51.5C 55.498,54.4816 55.6646,57.4816 55.5,60.5 Z"/></g>
<g><path style="opacity:1" fill="#b2b3b7" d="M 71.5,39.5 C 71.7828,40.2891 72.2828,40.9558 73,41.5C 73.1667,47.8333 73.3333,54.1667 73.5,60.5C 73.4964,67.2037 72.8298,73.537 71.5,79.5C 69.236,78.4187 67.0693,77.0854 65,75.5C 64.502,72.5184 64.3354,69.5184 64.5,66.5C 65.3195,63.6946 65.8195,60.6946 66,57.5C 66.7096,58.9733 67.8762,59.6399 69.5,59.5C 71.0178,52.7296 71.6844,46.0629 71.5,39.5 Z"/></g>
<g><path style="opacity:1" fill="#37393b" d="M 141.5,77.5 C 143.143,67.1543 138.809,63.4877 128.5,66.5C 128.611,65.8826 128.944,65.3826 129.5,65C 140.31,61.8214 144.81,65.6548 143,76.5C 142.617,77.056 142.117,77.3893 141.5,77.5 Z"/></g>
<g><path style="opacity:1" fill="#575043" d="M 157.5,66.5 C 157.5,72.5 157.5,78.5 157.5,84.5C 156.167,84.5 154.833,84.5 153.5,84.5C 153.5,82.1667 153.5,79.8333 153.5,77.5C 154.181,79.1585 155.015,80.8251 156,82.5C 156.499,77.5111 156.666,72.5111 156.5,67.5C 156.5,66.8333 156.833,66.5 157.5,66.5 Z"/></g>
<g><path style="opacity:1" fill="#313233" d="M 171.5,66.5 C 171.833,67.1667 172.167,67.8333 172.5,68.5C 172.5,73.5 172.5,78.5 172.5,83.5C 173.5,83.5 174.5,83.5 175.5,83.5C 174.081,84.4511 172.415,84.7845 170.5,84.5C 170.666,79.1563 170.499,73.8229 170,68.5C 166.078,66.6876 161.911,66.021 157.5,66.5C 157.611,65.8826 157.944,65.3826 158.5,65C 163.129,63.9784 167.462,64.4784 171.5,66.5 Z"/></g>
<g><path style="opacity:1" fill="#a78439" d="M 10.5,72.5 C 10.8333,72.5 11.1667,72.5 11.5,72.5C 14.4293,77.0994 18.096,81.0994 22.5,84.5C 29.2656,90.5425 37.2656,93.8758 46.5,94.5C 56.3761,95.1334 65.7095,93.3001 74.5,89C 68.0386,90.8633 61.3719,92.03 54.5,92.5C 50.5313,92.7058 46.8646,92.0392 43.5,90.5C 54.2954,91.5921 64.6287,89.9255 74.5,85.5C 75.1835,85.8627 75.8501,86.1961 76.5,86.5C 76.9175,87.2216 77.5842,87.7216 78.5,88C 76.9069,88.9487 75.5736,90.1154 74.5,91.5C 51.1884,102.108 31.0217,97.7749 14,78.5C 12.6063,76.6125 11.4396,74.6125 10.5,72.5 Z"/></g>
<g><path style="opacity:1" fill="#dbdee3" d="M 127.5,66.5 C 127.5,69.8333 127.5,73.1667 127.5,76.5C 127.565,76.9382 127.399,77.2716 127,77.5C 124.907,73.4769 125.073,69.8102 127.5,66.5 Z"/></g>
<g><path style="opacity:1" fill="#bec2c7" d="M 169.5,62.5 C 171.754,63.4151 173.754,64.7484 175.5,66.5C 175.5,71.8333 175.5,77.1667 175.5,82.5C 173.862,78.0874 172.862,73.4208 172.5,68.5C 172.167,67.8333 171.833,67.1667 171.5,66.5C 171.426,64.5891 170.426,63.4224 168.5,63C 168.728,62.6012 169.062,62.4346 169.5,62.5 Z"/></g>
<g><path style="opacity:1" fill="#bec2c9" d="M 38.5,57.5 C 39.4924,65.3159 39.8257,73.3159 39.5,81.5C 36.8333,79.8333 34.1667,78.1667 31.5,76.5C 29.9722,72.666 30.3056,68.9993 32.5,65.5C 35.8333,64.8332 37.1667,62.8332 36.5,59.5C 37.5,59.1667 38.1667,58.5 38.5,57.5 Z"/></g>
<g><path style="opacity:1" fill="#dbdce2" d="M 71.5,57.5 C 72.8188,64.344 72.8188,71.344 71.5,78.5C 69.5,76.8333 67.5,75.1667 65.5,73.5C 66.9905,72.7564 68.4905,72.0897 70,71.5C 70.5375,66.8291 71.0375,62.1624 71.5,57.5 Z"/></g>
<g><path style="opacity:1" fill="#7b6938" d="M 90.5,38.5 C 91.2679,39.2625 91.7679,40.2625 92,41.5C 92.4993,46.4889 92.6659,51.4889 92.5,56.5C 91.5911,61.1448 89.9244,65.4782 87.5,69.5C 84.3995,72.8354 81.3995,76.3354 78.5,80C 77.552,80.4828 76.552,80.6495 75.5,80.5C 75.5,80.1667 75.5,79.8333 75.5,79.5C 79.5722,76.4314 82.9056,72.7648 85.5,68.5C 86.7899,67.9423 87.6232,66.9423 88,65.5C 91.5067,56.7462 92.34,47.7462 90.5,38.5 Z"/></g>
<g><path style="opacity:0.275" fill="#342710" d="M 127.5,66.5 C 127.833,66.5 128.167,66.5 128.5,66.5C 138.809,63.4877 143.143,67.1543 141.5,77.5C 137.802,79.506 133.802,80.006 129.5,79C 128.934,78.0053 128.267,77.172 127.5,76.5C 127.5,73.1667 127.5,69.8333 127.5,66.5 Z M 129.5,68.5 C 129.5,71.5 129.5,74.5 129.5,77.5C 132.85,77.665 136.183,77.4983 139.5,77C 140.833,74.3333 140.833,71.6667 139.5,69C 136.183,68.5017 132.85,68.335 129.5,68.5 Z"/></g>
<g><path style="opacity:1" fill="#2d2d2b" d="M 153.5,62.5 C 153.5,64.1667 153.5,65.8333 153.5,67.5C 153.5,70.8333 153.5,74.1667 153.5,77.5C 153.5,79.8333 153.5,82.1667 153.5,84.5C 152.179,81.4018 151.512,77.9018 151.5,74C 151.667,70.5 151.833,67 152,63.5C 152.383,62.944 152.883,62.6107 153.5,62.5 Z"/></g>
<g><path style="opacity:1" fill="#222322" d="M 181.5,75.5 C 182.667,77.0414 184,78.3748 185.5,79.5C 185.833,80.1667 186.167,80.8333 186.5,81.5C 186.611,82.1174 186.944,82.6174 187.5,83C 191.486,83.4988 195.486,83.6655 199.5,83.5C 195.354,84.647 191.02,84.8136 186.5,84C 182.911,82.3258 181.245,79.4925 181.5,75.5 Z"/></g>
<g><path style="opacity:1" fill="#868d97" d="M 172.5,68.5 C 172.862,73.4208 173.862,78.0874 175.5,82.5C 175.5,82.8333 175.5,83.1667 175.5,83.5C 174.5,83.5 173.5,83.5 172.5,83.5C 172.5,78.5 172.5,73.5 172.5,68.5 Z"/></g>
<g><path style="opacity:1" fill="#292c2e" d="M 29.5,65.5 C 29.335,68.8499 29.5017,72.1832 30,75.5C 30.3826,76.056 30.8826,76.3893 31.5,76.5C 33.2238,78.8749 34.8905,81.2082 36.5,83.5C 33.8599,82.1799 31.1932,80.8466 28.5,79.5C 27.3982,75.2529 27.2316,70.9196 28,66.5C 28.3826,65.944 28.8826,65.6107 29.5,65.5 Z"/></g>
<g><path style="opacity:1" fill="#5d666e" d="M 31.5,76.5 C 34.1667,78.1667 36.8333,79.8333 39.5,81.5C 39.5983,84.2476 38.5983,84.9143 36.5,83.5C 34.8905,81.2082 33.2238,78.8749 31.5,76.5 Z"/></g>
<g><path style="opacity:1" fill="#292a2a" d="M 122.5,51.5 C 124.415,51.2155 126.081,51.5489 127.5,52.5C 126.5,52.5 125.5,52.5 124.5,52.5C 124.334,60.5069 124.5,68.5069 125,76.5C 125.232,77.7375 125.732,78.7375 126.5,79.5C 127.29,80.7942 128.29,81.9609 129.5,83C 132.817,83.4983 136.15,83.665 139.5,83.5C 135.689,84.6453 131.689,84.8119 127.5,84C 126.333,82.8333 125.167,81.6667 124,80.5C 122.58,70.9138 122.08,61.2471 122.5,51.5 Z"/></g>
<g><path style="opacity:1" fill="#848c96" d="M 185.5,79.5 C 189.083,80.0073 192.417,81.0073 195.5,82.5C 192.43,82.6323 189.43,82.299 186.5,81.5C 186.167,80.8333 185.833,80.1667 185.5,79.5 Z"/></g>
<g><path style="opacity:1" fill="#475158" d="M 63.5,77.5 C 64.404,78.209 64.7373,79.209 64.5,80.5C 66.5,80.5 68.5,80.5 70.5,80.5C 68.8185,82.0075 66.8185,83.0075 64.5,83.5C 63.5386,81.7354 63.2053,79.7354 63.5,77.5 Z"/></g>
<g><path style="opacity:1" fill="#6f7883" d="M 47.5,77.5 C 50.6462,78.3095 52.3129,80.3095 52.5,83.5C 50.8333,83.5 49.1667,83.5 47.5,83.5C 47.5,81.5 47.5,79.5 47.5,77.5 Z"/></g>
<g><path style="opacity:1" fill="#50575f" d="M 126.5,79.5 C 131.227,81.4571 136.227,82.4571 141.5,82.5C 141.158,83.3382 140.492,83.6716 139.5,83.5C 136.15,83.665 132.817,83.4983 129.5,83C 128.29,81.9609 127.29,80.7942 126.5,79.5 Z"/></g>
<g><path style="opacity:1" fill="#42484e" d="M 186.5,81.5 C 189.43,82.299 192.43,82.6323 195.5,82.5C 197.167,82.5 198.833,82.5 200.5,82.5C 200.5,83.1667 200.167,83.5 199.5,83.5C 195.486,83.6655 191.486,83.4988 187.5,83C 186.944,82.6174 186.611,82.1174 186.5,81.5 Z"/></g>
<g><path style="opacity:1" fill="#392d13" d="M 3.5,39.5 C 3.33391,45.1764 3.50058,50.8431 4,56.5C 4.45053,61.0339 5.95053,65.0339 8.5,68.5C 9.16667,69.8333 9.83333,71.1667 10.5,72.5C 11.4396,74.6125 12.6063,76.6125 14,78.5C 31.0217,97.7749 51.1884,102.108 74.5,91.5C 70.4387,94.7004 65.772,96.8671 60.5,98C 44.0214,101.214 29.3548,97.5471 16.5,87C 14.2345,85.2419 12.5678,83.0752 11.5,80.5C 2.91585,67.856 0.249182,54.1894 3.5,39.5 Z"/></g>
<g><path style="opacity:1" fill="#b39951" d="M 23.5,76.5 C 24.1667,77.8333 25.1667,78.8333 26.5,79.5C 29.2558,82.3891 32.5891,84.5558 36.5,86C 43.6798,88.1084 51.0131,88.9418 58.5,88.5C 53.5,89.1667 48.5,89.8333 43.5,90.5C 32.906,88.3185 25.0726,82.6518 20,73.5C 21.0391,74.7101 22.2058,75.7101 23.5,76.5 Z"/></g>
<g><path style="opacity:1" fill="#ba9037" d="M 87.5,69.5 C 86.1113,72.6067 84.4446,75.6067 82.5,78.5C 83.1272,79.4168 83.4606,80.4168 83.5,81.5C 83.5,81.8333 83.5,82.1667 83.5,82.5C 81.1838,83.8056 78.8505,85.1389 76.5,86.5C 75.8501,86.1961 75.1835,85.8627 74.5,85.5C 64.6287,89.9255 54.2954,91.5921 43.5,90.5C 48.5,89.8333 53.5,89.1667 58.5,88.5C 59.9303,87.4625 61.597,86.7959 63.5,86.5C 67.7422,84.9095 71.7422,82.9095 75.5,80.5C 76.552,80.6495 77.552,80.4828 78.5,80C 81.3995,76.3354 84.3995,72.8354 87.5,69.5 Z"/></g>
<g><path style="opacity:1" fill="#d2ba83" d="M 22.5,84.5 C 23.1667,84.5 23.8333,84.5 24.5,84.5C 31.3899,88.9473 38.7232,92.2806 46.5,94.5C 37.2656,93.8758 29.2656,90.5425 22.5,84.5 Z"/></g>
<g><path style="opacity:0.271" fill="#342508" d="M 83.5,82.5 C 81.7304,84.1133 80.5637,86.1133 80,88.5C 78.5123,90.16 76.679,91.16 74.5,91.5C 75.5736,90.1154 76.9069,88.9487 78.5,88C 77.5842,87.7216 76.9175,87.2216 76.5,86.5C 78.8505,85.1389 81.1838,83.8056 83.5,82.5 Z"/></g>
</svg>
